<?xml version="1.0" encoding="utf-8"?>
<!-- Generator: Adobe Illustrator 16.0.0, SVG Export Plug-In . SVG Version: 6.00 Build 0)  -->
<!DOCTYPE svg PUBLIC "-//W3C//DTD SVG 1.1//EN" "http://www.w3.org/Graphics/SVG/1.1/DTD/svg11.dtd">
<svg version="1.1" id="Layer_1" xmlns:serif="http://www.serif.com/"
	 xmlns="http://www.w3.org/2000/svg" xmlns:xlink="http://www.w3.org/1999/xlink" x="0px" y="0px" width="612px" height="792px"
	 viewBox="0 0 612 792" enable-background="new 0 0 612 792" xml:space="preserve">
<g id="Layer1">
</g>
<g>
	<path fill="#FFF780" d="M405.5,413c18.102-10.007,33.753-45.29,47.194-44.195c13.444,1.095,19.536,37.744,33.46,50.765
		c13.596,12.713,47.48,16.389,50.083,27.361c2.604,10.973-28.758,22.738-34.462,38.471c-5.871,16.188,10.42,52.475-0.759,58.66
		c-11.182,6.182-45.031-20.098-66.319-21.557c-20.935-1.434-51.722,20.018-61.405,12.805c-9.687-7.209,7.835-38.889,3.295-56.07
		c-5.821-22.035-37.321-39.354-32.503-50.395C348.903,417.807,387.399,423.008,405.5,413z"/>
	<g transform="matrix(1.14169,0,0,1.04374,470.097,665.252)">
		<g transform="matrix(0.875894,-0,-0,0.958096,-411.755,-637.375)">
			<g>
				
					<image overflow="visible" enable-background="new    " width="1106" height="1011" id="_Image1" xlink:href="19156055.png"  transform="matrix(0.1745 0 0 0.1745 343.5848 368.7795)">
				</image>
			</g>
		</g>
	</g>
	<g id="Layer2">
	</g>
</g>
</svg>
